<svg xmlns="http://www.w3.org/2000/svg" id="Layer_1" viewBox="0 0 1022.41151 360.27348"><defs><style>.cls-1{fill:#1d1d1b}.cls-3{fill:#fff}</style></defs><path d="M349.225 331.731q-16.276 0-27.715-4.953a47.7 47.7 0 0 1-18.515-13.68 54.9 54.9 0 0 1-10.261-20.404 95.2 95.2 0 0 1-3.185-25.12v-102.84h16.04v100.718a75.4 75.4 0 0 0 3.184 23.232 44.8 44.8 0 0 0 8.846 16.158 34.5 34.5 0 0 0 13.68 9.435 53.93 53.93 0 0 0 35.852 0 34.54 34.54 0 0 0 13.68-9.435 44.8 44.8 0 0 0 8.845-16.158 75.4 75.4 0 0 0 3.185-23.232V164.735H408.9v102.839a95.2 95.2 0 0 1-3.184 25.12 54.9 54.9 0 0 1-10.26 20.403 47.76 47.76 0 0 1-18.516 13.681q-11.444 4.953-27.715 4.953M461.52 213.56q4.009-3.063 12.856-6.486a57.8 57.8 0 0 1 20.874-3.42 55.6 55.6 0 0 1 23.47 4.717 48.8 48.8 0 0 1 17.336 13.209 58.3 58.3 0 0 1 10.732 20.167 85.3 85.3 0 0 1 3.657 25.592 76.4 76.4 0 0 1-4.365 26.653 57.4 57.4 0 0 1-12.264 20.049 52.76 52.76 0 0 1-18.87 12.619 65.5 65.5 0 0 1-24.412 4.363q-16.276 0-26.89-2.122a138 138 0 0 1-17.454-4.482V147.988l15.33-2.83Zm0 100.245a67.6 67.6 0 0 0 10.497 2.24 126 126 0 0 0 18.28 1.062q19.814 0 31.843-12.854t12.03-36.914a84.3 84.3 0 0 0-2.124-19.224 45.1 45.1 0 0 0-6.84-15.804 34.3 34.3 0 0 0-12.383-10.731q-7.667-4.008-18.988-4.01a49.4 49.4 0 0 0-10.378 1.062 60.4 60.4 0 0 0-9.199 2.712 51 51 0 0 0-7.43 3.538 53 53 0 0 0-5.307 3.538ZM674.063 323.947q-6.844 1.891-18.399 4.246a144.4 144.4 0 0 1-28.303 2.359q-13.683 0-22.88-4.01a37.14 37.14 0 0 1-14.86-11.322 45.8 45.8 0 0 1-8.137-17.69 98.6 98.6 0 0 1-2.477-22.88v-68.402h15.331v63.449a108.3 108.3 0 0 0 1.887 21.937q1.885 8.966 6.133 14.505a23.93 23.93 0 0 0 10.968 8.02 47.6 47.6 0 0 0 16.393 2.476 131 131 0 0 0 18.87-1.18q8.016-1.177 10.142-2.121V206.248h15.332ZM710.288 210.494q6.838-1.885 18.398-4.246a144.4 144.4 0 0 1 28.305-2.359q13.914 0 23.233 4.01a35.7 35.7 0 0 1 14.86 11.44 46.7 46.7 0 0 1 7.902 17.808 103.5 103.5 0 0 1 2.358 22.88v68.166h-15.332V264.98a115.5 115.5 0 0 0-1.768-21.936 36.6 36.6 0 0 0-5.897-14.624 22.94 22.94 0 0 0-10.85-8.138q-6.723-2.476-16.865-2.477a129 129 0 0 0-18.752 1.18q-7.906 1.182-10.26 2.123v107.085h-15.332ZM854.945 206.248h48.59v12.972h-48.59v64.866a65.9 65.9 0 0 0 1.77 16.864 23.5 23.5 0 0 0 5.07 10.024 16.05 16.05 0 0 0 8.02 4.718 42.7 42.7 0 0 0 10.378 1.179q9.67 0 15.567-2.24a68 68 0 0 0 9.2-4.128l3.773 12.737q-3.305 2.123-11.558 4.835a57.2 57.2 0 0 1-17.925 2.713q-11.322 0-18.988-2.948a27.44 27.44 0 0 1-12.265-8.963 36.7 36.7 0 0 1-6.487-14.979 104 104 0 0 1-1.886-21.228V170.396l15.33-2.83ZM1022.412 323.947q-6.844 1.891-18.399 4.246a144.4 144.4 0 0 1-28.304 2.359q-13.683 0-22.88-4.01a37.14 37.14 0 0 1-14.86-11.322 45.8 45.8 0 0 1-8.137-17.69 98.6 98.6 0 0 1-2.476-22.88v-68.402h15.33v63.449a108.3 108.3 0 0 0 1.888 21.937q1.885 8.966 6.132 14.505a23.93 23.93 0 0 0 10.968 8.02 47.6 47.6 0 0 0 16.394 2.476 131 131 0 0 0 18.869-1.18q8.017-1.177 10.142-2.121V206.248h15.332Z" class="cls-1"/><path d="M0 0h233.931v360.273H0z" style="fill:#e9500e"/><circle cx="51.02111" cy="237.79719" r="24.5497" class="cls-3"/><circle cx="153.26149" cy="183.96621" r="24.5497" class="cls-3"/><path d="M106.39 300.978a59.79 59.79 0 0 1-40.773-31.095 35.34 35.34 0 0 1-20.99 2.58 79.92 79.92 0 0 0 57.54 48.223 81 81 0 0 0 17.432 1.794 35.13 35.13 0 0 1-7.188-20.525 61 61 0 0 1-6.022-.977" class="cls-3"/><circle cx="147.73055" cy="301.11369" r="24.5497" class="cls-3"/><path d="M181.893 292.096a80.32 80.32 0 0 0 4.024-94.238 35.4 35.4 0 0 1-13.805 16.168 60.19 60.19 0 0 1-1.967 59.78 35.2 35.2 0 0 1 11.748 18.29M49.127 202.59q.935-.05 1.87-.05a35.43 35.43 0 0 1 18.618 5.302 59.87 59.87 0 0 1 48.21-25.785 35.6 35.6 0 0 1 7.448-19.91 80.7 80.7 0 0 0-76.146 40.444" class="cls-3"/></svg>